<svg width="10" height="11" viewBox="0 0 10 11" fill="none" xmlns="http://www.w3.org/2000/svg">
<path fill-rule="evenodd" clip-rule="evenodd" d="M9.41444 7.02131L8.47524 6.48462L5.08371 8.42103C4.88423 8.53528 4.63916 8.53528 4.43968 8.42103L1.04902 6.48462L0.108947 7.02131C0.0415718 7.05985 0 7.13153 0 7.20915C0 7.28677 0.0415718 7.35845 0.108947 7.39699L4.65349 9.99388C4.72001 10.0319 4.80165 10.0319 4.86817 9.99388L9.41271 7.39699C9.48009 7.35845 9.52166 7.28677 9.52166 7.20915C9.52166 7.13153 9.48009 7.05985 9.41271 7.02131H9.41444Z" fill="#258AFF"/>
<path fill-rule="evenodd" clip-rule="evenodd" d="M9.41444 5.07355L8.47524 4.53687L5.08371 6.47328C4.88423 6.58752 4.63916 6.58752 4.43968 6.47328L1.04902 4.53687L0.108947 5.07355C0.0415718 5.1121 0 5.18377 0 5.2614C0 5.33902 0.0415718 5.41069 0.108947 5.44924L4.65349 8.04612C4.72001 8.08412 4.80165 8.08412 4.86817 8.04612L9.41271 5.44924C9.48009 5.41069 9.52166 5.33902 9.52166 5.2614C9.52166 5.18377 9.48009 5.1121 9.41271 5.07355H9.41444Z" fill="#258AFF"/>
<path fill-rule="evenodd" clip-rule="evenodd" d="M9.41443 3.12587L4.86988 0.528984C4.80336 0.49099 4.72172 0.49099 4.6552 0.528984L0.110656 3.12587C0.0432808 3.16441 0.00170898 3.23609 0.00170898 3.31371C0.00170898 3.39133 0.0432808 3.463 0.110656 3.50155L4.6552 6.09843C4.72172 6.13643 4.80336 6.13643 4.86988 6.09843L9.41443 3.50155C9.4818 3.463 9.52337 3.39133 9.52337 3.31371C9.52337 3.23609 9.4818 3.16441 9.41443 3.12587Z" fill="#258AFF"/>
</svg>
